# xmcd
#
# Track frame offsets:
#	150
#	17819
#	33573
#	45569
#	79656
#	98827
#	111371
#	136645
#	153574
#	165720
#
# Disc length: 2624 seconds
#
# Revision: 0
# Processed by: cddbd v1.5.2PL0 Copyright (c) Steve Scherf et al.
# Submitted via: EZCDAudioConverter 2.4.0.1
#
DISCID=760a3e0a
DTITLE=Tottas Bluesband
DYEAR=1981
DGENRE=Blues
TTITLE0=We'll Play The Blues For You
TTITLE1=Last Time
TTITLE2=Chicago Bound
TTITLE3=Me And The Devil Blues
TTITLE4=How Many More Years
TTITLE5=Don't Burn Down The Bridge
TTITLE6=Sittin' On Top Of The World
TTITLE7=One Way Out
TTITLE8=Just Your Fool
TTITLE9=Double Trouble
EXTD=
EXTT0=
EXTT1=
EXTT2=
EXTT3=
EXTT4=
EXTT5=
EXTT6=
EXTT7=
EXTT8=
EXTT9=
PLAYORDER=
